<mxfile host="app.diagrams.net" agent="Mozilla/5.0 (Windows NT 10.0; Win64; x64) AppleWebKit/537.36 (KHTML, like Gecko) Chrome/131.0.0.0 Safari/537.36 Edg/131.0.0.0" version="25.0.3">
  <diagram name="Page-1" id="9f46799a-70d6-7492-0946-bef42562c5a5">
    <mxGraphModel dx="3898" dy="1484" grid="1" gridSize="10" guides="1" tooltips="1" connect="1" arrows="1" fold="1" page="1" pageScale="1" pageWidth="1100" pageHeight="850" background="none" math="0" shadow="0">
      <root>
        <mxCell id="0" />
        <mxCell id="1" parent="0" />
        <mxCell id="78961159f06e98e8-17" value="CommonProcesses" style="swimlane;html=1;fontStyle=1;align=center;verticalAlign=top;childLayout=stackLayout;horizontal=1;startSize=26;horizontalStack=0;resizeParent=1;resizeLast=0;collapsible=1;marginBottom=0;swimlaneFillColor=#ffffff;rounded=0;shadow=0;comic=0;labelBackgroundColor=none;strokeWidth=1;fillColor=none;fontFamily=Verdana;fontSize=12" parent="1" vertex="1">
          <mxGeometry x="450" y="20" width="390" height="540" as="geometry" />
        </mxCell>
        <mxCell id="78961159f06e98e8-21" value="- image: Mat" style="text;html=1;strokeColor=none;fillColor=none;align=left;verticalAlign=top;spacingLeft=4;spacingRight=4;whiteSpace=wrap;overflow=hidden;rotatable=0;points=[[0,0.5],[1,0.5]];portConstraint=eastwest;" parent="78961159f06e98e8-17" vertex="1">
          <mxGeometry y="26" width="390" height="26" as="geometry" />
        </mxCell>
        <mxCell id="78961159f06e98e8-23" value="- grayLevelImage: Mat" style="text;html=1;strokeColor=none;fillColor=none;align=left;verticalAlign=top;spacingLeft=4;spacingRight=4;whiteSpace=wrap;overflow=hidden;rotatable=0;points=[[0,0.5],[1,0.5]];portConstraint=eastwest;" parent="78961159f06e98e8-17" vertex="1">
          <mxGeometry y="52" width="390" height="26" as="geometry" />
        </mxCell>
        <mxCell id="78961159f06e98e8-25" value="- scaleFactor: &lt;span class=&quot;hljs-keyword&quot;&gt;double&lt;/span&gt;" style="text;html=1;strokeColor=none;fillColor=none;align=left;verticalAlign=top;spacingLeft=4;spacingRight=4;whiteSpace=wrap;overflow=hidden;rotatable=0;points=[[0,0.5],[1,0.5]];portConstraint=eastwest;" parent="78961159f06e98e8-17" vertex="1">
          <mxGeometry y="78" width="390" height="26" as="geometry" />
        </mxCell>
        <mxCell id="78961159f06e98e8-26" value="- fileName: &lt;span class=&quot;hljs-keyword&quot;&gt;string&lt;/span&gt;" style="text;html=1;strokeColor=none;fillColor=none;align=left;verticalAlign=top;spacingLeft=4;spacingRight=4;whiteSpace=wrap;overflow=hidden;rotatable=0;points=[[0,0.5],[1,0.5]];portConstraint=eastwest;" parent="78961159f06e98e8-17" vertex="1">
          <mxGeometry y="104" width="390" height="26" as="geometry" />
        </mxCell>
        <mxCell id="78961159f06e98e8-19" value="" style="line;html=1;strokeWidth=1;fillColor=none;align=left;verticalAlign=middle;spacingTop=-1;spacingLeft=3;spacingRight=3;rotatable=0;labelPosition=right;points=[];portConstraint=eastwest;" parent="78961159f06e98e8-17" vertex="1">
          <mxGeometry y="130" width="390" height="8" as="geometry" />
        </mxCell>
        <mxCell id="78961159f06e98e8-20" value="+ &lt;span class=&quot;hljs-title function_ invoke__&quot;&gt;CommonProcesses&lt;/span&gt;(&lt;span class=&quot;hljs-attr&quot;&gt;filePath&lt;/span&gt;: &lt;span class=&quot;hljs-keyword&quot;&gt;string&lt;/span&gt;, &lt;span class=&quot;hljs-attr&quot;&gt;fileName&lt;/span&gt;: &lt;span class=&quot;hljs-keyword&quot;&gt;string&lt;/span&gt;, &lt;span class=&quot;hljs-attr&quot;&gt;scale&lt;/span&gt;: &lt;span class=&quot;hljs-keyword&quot;&gt;double&lt;/span&gt;&amp;amp;)" style="text;html=1;strokeColor=none;fillColor=none;align=left;verticalAlign=top;spacingLeft=4;spacingRight=4;whiteSpace=wrap;overflow=hidden;rotatable=0;points=[[0,0.5],[1,0.5]];portConstraint=eastwest;" parent="78961159f06e98e8-17" vertex="1">
          <mxGeometry y="138" width="390" height="26" as="geometry" />
        </mxCell>
        <mxCell id="78961159f06e98e8-27" value="+ ~&lt;span class=&quot;hljs-title function_ invoke__&quot;&gt;CommonProcesses&lt;/span&gt;()" style="text;html=1;strokeColor=none;fillColor=none;align=left;verticalAlign=top;spacingLeft=4;spacingRight=4;whiteSpace=wrap;overflow=hidden;rotatable=0;points=[[0,0.5],[1,0.5]];portConstraint=eastwest;" parent="78961159f06e98e8-17" vertex="1">
          <mxGeometry y="164" width="390" height="26" as="geometry" />
        </mxCell>
        <mxCell id="Kzs0DwmEe2T-_LOK4Gmm-4" value="+ &lt;span class=&quot;hljs-title function_ invoke__&quot;&gt;getImage&lt;/span&gt;(): Mat&amp;amp;" style="text;html=1;strokeColor=none;fillColor=none;align=left;verticalAlign=top;spacingLeft=4;spacingRight=4;whiteSpace=wrap;overflow=hidden;rotatable=0;points=[[0,0.5],[1,0.5]];portConstraint=eastwest;" parent="78961159f06e98e8-17" vertex="1">
          <mxGeometry y="190" width="390" height="26" as="geometry" />
        </mxCell>
        <mxCell id="Kzs0DwmEe2T-_LOK4Gmm-5" value="+ &lt;span class=&quot;hljs-title function_ invoke__&quot;&gt;getgrayLevelImage&lt;/span&gt;(): Mat &lt;span class=&quot;hljs-keyword&quot;&gt;const&lt;/span&gt;" style="text;html=1;strokeColor=none;fillColor=none;align=left;verticalAlign=top;spacingLeft=4;spacingRight=4;whiteSpace=wrap;overflow=hidden;rotatable=0;points=[[0,0.5],[1,0.5]];portConstraint=eastwest;" parent="78961159f06e98e8-17" vertex="1">
          <mxGeometry y="216" width="390" height="26" as="geometry" />
        </mxCell>
        <mxCell id="Kzs0DwmEe2T-_LOK4Gmm-6" value="+ &lt;span class=&quot;hljs-title function_ invoke__&quot;&gt;getfileName&lt;/span&gt;(): &lt;span class=&quot;hljs-keyword&quot;&gt;string&lt;/span&gt; &lt;span class=&quot;hljs-keyword&quot;&gt;const&lt;/span&gt;" style="text;html=1;strokeColor=none;fillColor=none;align=left;verticalAlign=top;spacingLeft=4;spacingRight=4;whiteSpace=wrap;overflow=hidden;rotatable=0;points=[[0,0.5],[1,0.5]];portConstraint=eastwest;" parent="78961159f06e98e8-17" vertex="1">
          <mxGeometry y="242" width="390" height="26" as="geometry" />
        </mxCell>
        <mxCell id="Kzs0DwmEe2T-_LOK4Gmm-7" value="+ &lt;span class=&quot;hljs-title function_ invoke__&quot;&gt;setfileName&lt;/span&gt;(&lt;span class=&quot;hljs-attr&quot;&gt;nameOfFile&lt;/span&gt;: &lt;span class=&quot;hljs-keyword&quot;&gt;string&lt;/span&gt; &lt;span class=&quot;hljs-keyword&quot;&gt;const&lt;/span&gt;&amp;amp;): &lt;span class=&quot;hljs-keyword&quot;&gt;void&lt;/span&gt;" style="text;html=1;strokeColor=none;fillColor=none;align=left;verticalAlign=top;spacingLeft=4;spacingRight=4;whiteSpace=wrap;overflow=hidden;rotatable=0;points=[[0,0.5],[1,0.5]];portConstraint=eastwest;" parent="78961159f06e98e8-17" vertex="1">
          <mxGeometry y="268" width="390" height="26" as="geometry" />
        </mxCell>
        <mxCell id="Kzs0DwmEe2T-_LOK4Gmm-8" value="+ &lt;span class=&quot;hljs-title function_ invoke__&quot;&gt;readImage&lt;/span&gt;(&lt;span class=&quot;hljs-attr&quot;&gt;filePath&lt;/span&gt;: &lt;span class=&quot;hljs-keyword&quot;&gt;string&lt;/span&gt;): &lt;span class=&quot;hljs-keyword&quot;&gt;void&lt;/span&gt;" style="text;html=1;strokeColor=none;fillColor=none;align=left;verticalAlign=top;spacingLeft=4;spacingRight=4;whiteSpace=wrap;overflow=hidden;rotatable=0;points=[[0,0.5],[1,0.5]];portConstraint=eastwest;" parent="78961159f06e98e8-17" vertex="1">
          <mxGeometry y="294" width="390" height="26" as="geometry" />
        </mxCell>
        <mxCell id="Kzs0DwmEe2T-_LOK4Gmm-9" value="+ &lt;span class=&quot;hljs-title function_ invoke__&quot;&gt;convertToGrayScale&lt;/span&gt;(&lt;span class=&quot;hljs-attr&quot;&gt;image&lt;/span&gt;: Mat&amp;amp;): &lt;span class=&quot;hljs-keyword&quot;&gt;void&lt;/span&gt;" style="text;html=1;strokeColor=none;fillColor=none;align=left;verticalAlign=top;spacingLeft=4;spacingRight=4;whiteSpace=wrap;overflow=hidden;rotatable=0;points=[[0,0.5],[1,0.5]];portConstraint=eastwest;" parent="78961159f06e98e8-17" vertex="1">
          <mxGeometry y="320" width="390" height="26" as="geometry" />
        </mxCell>
        <mxCell id="Kzs0DwmEe2T-_LOK4Gmm-10" value="+ &lt;span class=&quot;hljs-title function_ invoke__&quot;&gt;showImage&lt;/span&gt;(&lt;span class=&quot;hljs-attr&quot;&gt;windowName&lt;/span&gt;: &lt;span class=&quot;hljs-keyword&quot;&gt;string&lt;/span&gt;, &lt;span class=&quot;hljs-attr&quot;&gt;image&lt;/span&gt;: Mat&amp;amp;): &lt;span class=&quot;hljs-keyword&quot;&gt;void&lt;/span&gt; &lt;span class=&quot;hljs-keyword&quot;&gt;const&lt;/span&gt;" style="text;html=1;strokeColor=none;fillColor=none;align=left;verticalAlign=top;spacingLeft=4;spacingRight=4;whiteSpace=wrap;overflow=hidden;rotatable=0;points=[[0,0.5],[1,0.5]];portConstraint=eastwest;" parent="78961159f06e98e8-17" vertex="1">
          <mxGeometry y="346" width="390" height="26" as="geometry" />
        </mxCell>
        <mxCell id="Kzs0DwmEe2T-_LOK4Gmm-11" value="+ &lt;span class=&quot;hljs-title function_ invoke__&quot;&gt;showGrayLevelImage&lt;/span&gt;(&lt;span class=&quot;hljs-attr&quot;&gt;windowName&lt;/span&gt;: &lt;span class=&quot;hljs-keyword&quot;&gt;string&lt;/span&gt;): &lt;span class=&quot;hljs-keyword&quot;&gt;void&lt;/span&gt; &lt;span class=&quot;hljs-keyword&quot;&gt;const&lt;/span&gt;" style="text;html=1;strokeColor=none;fillColor=none;align=left;verticalAlign=top;spacingLeft=4;spacingRight=4;whiteSpace=wrap;overflow=hidden;rotatable=0;points=[[0,0.5],[1,0.5]];portConstraint=eastwest;" parent="78961159f06e98e8-17" vertex="1">
          <mxGeometry y="372" width="390" height="26" as="geometry" />
        </mxCell>
        <mxCell id="Kzs0DwmEe2T-_LOK4Gmm-12" value="+ &lt;span class=&quot;hljs-title function_ invoke__&quot;&gt;saveRGBToFile&lt;/span&gt;(&lt;span class=&quot;hljs-attr&quot;&gt;image&lt;/span&gt;: Mat &lt;span class=&quot;hljs-keyword&quot;&gt;const&lt;/span&gt;&amp;amp;, &lt;span class=&quot;hljs-attr&quot;&gt;fileName&lt;/span&gt;: &lt;span class=&quot;hljs-keyword&quot;&gt;string&lt;/span&gt;): &lt;span class=&quot;hljs-keyword&quot;&gt;void&lt;/span&gt;" style="text;html=1;strokeColor=none;fillColor=none;align=left;verticalAlign=top;spacingLeft=4;spacingRight=4;whiteSpace=wrap;overflow=hidden;rotatable=0;points=[[0,0.5],[1,0.5]];portConstraint=eastwest;" parent="78961159f06e98e8-17" vertex="1">
          <mxGeometry y="398" width="390" height="22" as="geometry" />
        </mxCell>
        <mxCell id="Kzs0DwmEe2T-_LOK4Gmm-13" value="+ &lt;span class=&quot;hljs-title function_ invoke__&quot;&gt;rescaleImage&lt;/span&gt;(&lt;span class=&quot;hljs-attr&quot;&gt;image&lt;/span&gt;: Mat&amp;amp;): &lt;span class=&quot;hljs-keyword&quot;&gt;void&lt;/span&gt; &lt;span class=&quot;hljs-keyword&quot;&gt;const&lt;/span&gt;" style="text;html=1;strokeColor=none;fillColor=none;align=left;verticalAlign=top;spacingLeft=4;spacingRight=4;whiteSpace=wrap;overflow=hidden;rotatable=0;points=[[0,0.5],[1,0.5]];portConstraint=eastwest;" parent="78961159f06e98e8-17" vertex="1">
          <mxGeometry y="420" width="390" height="22" as="geometry" />
        </mxCell>
        <mxCell id="Kzs0DwmEe2T-_LOK4Gmm-14" value="+ &lt;span class=&quot;hljs-title function_ invoke__&quot;&gt;filterNoiseGaus&lt;/span&gt;(&lt;span class=&quot;hljs-attr&quot;&gt;image&lt;/span&gt;: Mat&amp;amp;): &lt;span class=&quot;hljs-keyword&quot;&gt;void&lt;/span&gt;" style="text;html=1;strokeColor=none;fillColor=none;align=left;verticalAlign=top;spacingLeft=4;spacingRight=4;whiteSpace=wrap;overflow=hidden;rotatable=0;points=[[0,0.5],[1,0.5]];portConstraint=eastwest;" parent="78961159f06e98e8-17" vertex="1">
          <mxGeometry y="442" width="390" height="28" as="geometry" />
        </mxCell>
        <mxCell id="Kzs0DwmEe2T-_LOK4Gmm-15" value="+ &lt;span class=&quot;hljs-title function_ invoke__&quot;&gt;filterNoiseMedian&lt;/span&gt;(&lt;span class=&quot;hljs-attr&quot;&gt;image&lt;/span&gt;: Mat&amp;amp;): &lt;span class=&quot;hljs-keyword&quot;&gt;void&lt;/span&gt;" style="text;html=1;strokeColor=none;fillColor=none;align=left;verticalAlign=top;spacingLeft=4;spacingRight=4;whiteSpace=wrap;overflow=hidden;rotatable=0;points=[[0,0.5],[1,0.5]];portConstraint=eastwest;" parent="78961159f06e98e8-17" vertex="1">
          <mxGeometry y="470" width="390" height="20" as="geometry" />
        </mxCell>
        <mxCell id="Kzs0DwmEe2T-_LOK4Gmm-16" value="+ &lt;span class=&quot;hljs-title function_ invoke__&quot;&gt;getScaleFactor&lt;/span&gt;(): &lt;span class=&quot;hljs-keyword&quot;&gt;double&lt;/span&gt; &lt;span class=&quot;hljs-keyword&quot;&gt;const&lt;/span&gt;" style="text;html=1;strokeColor=none;fillColor=none;align=left;verticalAlign=top;spacingLeft=4;spacingRight=4;whiteSpace=wrap;overflow=hidden;rotatable=0;points=[[0,0.5],[1,0.5]];portConstraint=eastwest;" parent="78961159f06e98e8-17" vertex="1">
          <mxGeometry y="490" width="390" height="20" as="geometry" />
        </mxCell>
        <mxCell id="Kzs0DwmEe2T-_LOK4Gmm-17" value="+ &lt;span class=&quot;hljs-title function_ invoke__&quot;&gt;setScaleFactor&lt;/span&gt;(&lt;span class=&quot;hljs-attr&quot;&gt;sf&lt;/span&gt;: &lt;span class=&quot;hljs-keyword&quot;&gt;double&lt;/span&gt;&amp;amp;): &lt;span class=&quot;hljs-keyword&quot;&gt;void&lt;/span&gt;" style="text;html=1;strokeColor=none;fillColor=none;align=left;verticalAlign=top;spacingLeft=4;spacingRight=4;whiteSpace=wrap;overflow=hidden;rotatable=0;points=[[0,0.5],[1,0.5]];portConstraint=eastwest;" parent="78961159f06e98e8-17" vertex="1">
          <mxGeometry y="510" width="390" height="20" as="geometry" />
        </mxCell>
        <mxCell id="78961159f06e98e8-30" value="CornerDetection" style="swimlane;html=1;fontStyle=1;align=center;verticalAlign=top;childLayout=stackLayout;horizontal=1;startSize=26;horizontalStack=0;resizeParent=1;resizeLast=0;collapsible=1;marginBottom=0;swimlaneFillColor=#ffffff;rounded=0;shadow=0;comic=0;labelBackgroundColor=none;strokeWidth=1;fillColor=none;fontFamily=Verdana;fontSize=12" parent="1" vertex="1">
          <mxGeometry x="720" y="1453" width="370" height="330" as="geometry" />
        </mxCell>
        <mxCell id="78961159f06e98e8-31" value="- qualityLevel: &lt;span class=&quot;hljs-keyword&quot;&gt;int&lt;/span&gt;" style="text;html=1;strokeColor=none;fillColor=none;align=left;verticalAlign=top;spacingLeft=4;spacingRight=4;whiteSpace=wrap;overflow=hidden;rotatable=0;points=[[0,0.5],[1,0.5]];portConstraint=eastwest;" parent="78961159f06e98e8-30" vertex="1">
          <mxGeometry y="26" width="370" height="26" as="geometry" />
        </mxCell>
        <mxCell id="78961159f06e98e8-32" value="&amp;nbsp;maxQualityLevel: &lt;span class=&quot;hljs-keyword&quot;&gt;int&lt;/span&gt; &lt;span class=&quot;hljs-keyword&quot;&gt;const&lt;/span&gt; = &lt;span class=&quot;hljs-number&quot;&gt;100&lt;/span&gt;" style="text;html=1;strokeColor=none;fillColor=none;align=left;verticalAlign=top;spacingLeft=4;spacingRight=4;whiteSpace=wrap;overflow=hidden;rotatable=0;points=[[0,0.5],[1,0.5]];portConstraint=eastwest;" parent="78961159f06e98e8-30" vertex="1">
          <mxGeometry y="52" width="370" height="26" as="geometry" />
        </mxCell>
        <mxCell id="78961159f06e98e8-33" value="- corners: vector&amp;lt;Point&amp;gt;" style="text;html=1;strokeColor=none;fillColor=none;align=left;verticalAlign=top;spacingLeft=4;spacingRight=4;whiteSpace=wrap;overflow=hidden;rotatable=0;points=[[0,0.5],[1,0.5]];portConstraint=eastwest;" parent="78961159f06e98e8-30" vertex="1">
          <mxGeometry y="78" width="370" height="26" as="geometry" />
        </mxCell>
        <mxCell id="78961159f06e98e8-38" value="" style="line;html=1;strokeWidth=1;fillColor=none;align=left;verticalAlign=middle;spacingTop=-1;spacingLeft=3;spacingRight=3;rotatable=0;labelPosition=right;points=[];portConstraint=eastwest;" parent="78961159f06e98e8-30" vertex="1">
          <mxGeometry y="104" width="370" height="8" as="geometry" />
        </mxCell>
        <mxCell id="78961159f06e98e8-39" value="+ &lt;span class=&quot;hljs-title function_ invoke__&quot;&gt;CornerDetection&lt;/span&gt;(&lt;span class=&quot;hljs-attr&quot;&gt;filePath&lt;/span&gt;: &lt;span class=&quot;hljs-keyword&quot;&gt;string&lt;/span&gt;, &lt;span class=&quot;hljs-attr&quot;&gt;fileName&lt;/span&gt;: &lt;span class=&quot;hljs-keyword&quot;&gt;string&lt;/span&gt;, &lt;span class=&quot;hljs-attr&quot;&gt;scale&lt;/span&gt;: &lt;span class=&quot;hljs-keyword&quot;&gt;double&lt;/span&gt;&amp;amp;)" style="text;html=1;strokeColor=none;fillColor=none;align=left;verticalAlign=top;spacingLeft=4;spacingRight=4;whiteSpace=wrap;overflow=hidden;rotatable=0;points=[[0,0.5],[1,0.5]];portConstraint=eastwest;" parent="78961159f06e98e8-30" vertex="1">
          <mxGeometry y="112" width="370" height="26" as="geometry" />
        </mxCell>
        <mxCell id="78961159f06e98e8-40" value="+ ~&lt;span class=&quot;hljs-title function_ invoke__&quot;&gt;CornerDetection&lt;/span&gt;()" style="text;html=1;strokeColor=none;fillColor=none;align=left;verticalAlign=top;spacingLeft=4;spacingRight=4;whiteSpace=wrap;overflow=hidden;rotatable=0;points=[[0,0.5],[1,0.5]];portConstraint=eastwest;" parent="78961159f06e98e8-30" vertex="1">
          <mxGeometry y="138" width="370" height="26" as="geometry" />
        </mxCell>
        <mxCell id="78961159f06e98e8-42" value="+ &lt;span class=&quot;hljs-title function_ invoke__&quot;&gt;detectFeatures&lt;/span&gt;(): &lt;span class=&quot;hljs-keyword&quot;&gt;void&lt;/span&gt; override" style="text;html=1;strokeColor=none;fillColor=none;align=left;verticalAlign=top;spacingLeft=4;spacingRight=4;whiteSpace=wrap;overflow=hidden;rotatable=0;points=[[0,0.5],[1,0.5]];portConstraint=eastwest;" parent="78961159f06e98e8-30" vertex="1">
          <mxGeometry y="164" width="370" height="26" as="geometry" />
        </mxCell>
        <mxCell id="Kzs0DwmEe2T-_LOK4Gmm-32" value="+ &lt;span class=&quot;hljs-title function_ invoke__&quot;&gt;processCornerDetection&lt;/span&gt;(): &lt;span class=&quot;hljs-keyword&quot;&gt;void&lt;/span&gt;" style="text;html=1;strokeColor=none;fillColor=none;align=left;verticalAlign=top;spacingLeft=4;spacingRight=4;whiteSpace=wrap;overflow=hidden;rotatable=0;points=[[0,0.5],[1,0.5]];portConstraint=eastwest;" parent="78961159f06e98e8-30" vertex="1">
          <mxGeometry y="190" width="370" height="26" as="geometry" />
        </mxCell>
        <mxCell id="Kzs0DwmEe2T-_LOK4Gmm-33" value="+ &lt;span class=&quot;hljs-title function_ invoke__&quot;&gt;processCornerDetection&lt;/span&gt;(&lt;span class=&quot;hljs-attr&quot;&gt;filter&lt;/span&gt;: &lt;span class=&quot;hljs-keyword&quot;&gt;bool&lt;/span&gt;): &lt;span class=&quot;hljs-keyword&quot;&gt;void&lt;/span&gt;" style="text;html=1;strokeColor=none;fillColor=none;align=left;verticalAlign=top;spacingLeft=4;spacingRight=4;whiteSpace=wrap;overflow=hidden;rotatable=0;points=[[0,0.5],[1,0.5]];portConstraint=eastwest;" parent="78961159f06e98e8-30" vertex="1">
          <mxGeometry y="216" width="370" height="26" as="geometry" />
        </mxCell>
        <mxCell id="Kzs0DwmEe2T-_LOK4Gmm-34" value="+ &lt;span class=&quot;hljs-title function_ invoke__&quot;&gt;getQualityLevel&lt;/span&gt;(): &lt;span class=&quot;hljs-keyword&quot;&gt;int&lt;/span&gt; &lt;span class=&quot;hljs-keyword&quot;&gt;const&lt;/span&gt;" style="text;html=1;strokeColor=none;fillColor=none;align=left;verticalAlign=top;spacingLeft=4;spacingRight=4;whiteSpace=wrap;overflow=hidden;rotatable=0;points=[[0,0.5],[1,0.5]];portConstraint=eastwest;" parent="78961159f06e98e8-30" vertex="1">
          <mxGeometry y="242" width="370" height="26" as="geometry" />
        </mxCell>
        <mxCell id="Kzs0DwmEe2T-_LOK4Gmm-35" value="+ &lt;span class=&quot;hljs-title function_ invoke__&quot;&gt;setQualityLevel&lt;/span&gt;(&lt;span class=&quot;hljs-attr&quot;&gt;q&lt;/span&gt;: &lt;span class=&quot;hljs-keyword&quot;&gt;int&lt;/span&gt;): &lt;span class=&quot;hljs-keyword&quot;&gt;void&lt;/span&gt;" style="text;html=1;strokeColor=none;fillColor=none;align=left;verticalAlign=top;spacingLeft=4;spacingRight=4;whiteSpace=wrap;overflow=hidden;rotatable=0;points=[[0,0.5],[1,0.5]];portConstraint=eastwest;" parent="78961159f06e98e8-30" vertex="1">
          <mxGeometry y="268" width="370" height="26" as="geometry" />
        </mxCell>
        <mxCell id="Kzs0DwmEe2T-_LOK4Gmm-36" value="+ operator+=(corner: Point): CornerDetection&amp;amp;" style="text;html=1;strokeColor=none;fillColor=none;align=left;verticalAlign=top;spacingLeft=4;spacingRight=4;whiteSpace=wrap;overflow=hidden;rotatable=0;points=[[0,0.5],[1,0.5]];portConstraint=eastwest;" parent="78961159f06e98e8-30" vertex="1">
          <mxGeometry y="294" width="370" height="26" as="geometry" />
        </mxCell>
        <mxCell id="78961159f06e98e8-56" value="Detection" style="swimlane;html=1;fontStyle=1;align=center;verticalAlign=top;childLayout=stackLayout;horizontal=1;startSize=26;horizontalStack=0;resizeParent=1;resizeLast=0;collapsible=1;marginBottom=0;swimlaneFillColor=#ffffff;rounded=0;shadow=0;comic=0;labelBackgroundColor=none;strokeWidth=1;fillColor=none;fontFamily=Verdana;fontSize=12" parent="1" vertex="1">
          <mxGeometry x="430" y="750" width="410" height="560" as="geometry" />
        </mxCell>
        <mxCell id="78961159f06e98e8-57" value="- cornerFeatures: vector&amp;lt;Point&amp;gt;" style="text;html=1;strokeColor=none;fillColor=none;align=left;verticalAlign=top;spacingLeft=4;spacingRight=4;whiteSpace=wrap;overflow=hidden;rotatable=0;points=[[0,0.5],[1,0.5]];portConstraint=eastwest;" parent="78961159f06e98e8-56" vertex="1">
          <mxGeometry y="26" width="410" height="26" as="geometry" />
        </mxCell>
        <mxCell id="78961159f06e98e8-58" value="- lineFeatures: vector&amp;lt;Vec4i&amp;gt;&lt;div&gt;&lt;br/&gt;&lt;/div&gt;" style="text;html=1;strokeColor=none;fillColor=none;align=left;verticalAlign=top;spacingLeft=4;spacingRight=4;whiteSpace=wrap;overflow=hidden;rotatable=0;points=[[0,0.5],[1,0.5]];portConstraint=eastwest;" parent="78961159f06e98e8-56" vertex="1">
          <mxGeometry y="52" width="410" height="26" as="geometry" />
        </mxCell>
        <mxCell id="78961159f06e98e8-59" value="- edgeImage: Mat&lt;div&gt;&lt;br/&gt;&lt;/div&gt;" style="text;html=1;strokeColor=none;fillColor=none;align=left;verticalAlign=top;spacingLeft=4;spacingRight=4;whiteSpace=wrap;overflow=hidden;rotatable=0;points=[[0,0.5],[1,0.5]];portConstraint=eastwest;" parent="78961159f06e98e8-56" vertex="1">
          <mxGeometry y="78" width="410" height="26" as="geometry" />
        </mxCell>
        <mxCell id="78961159f06e98e8-60" value="- threshold: &lt;span class=&quot;hljs-keyword&quot;&gt;int&lt;/span&gt;" style="text;html=1;strokeColor=none;fillColor=none;align=left;verticalAlign=top;spacingLeft=4;spacingRight=4;whiteSpace=wrap;overflow=hidden;rotatable=0;points=[[0,0.5],[1,0.5]];portConstraint=eastwest;" parent="78961159f06e98e8-56" vertex="1">
          <mxGeometry y="104" width="410" height="26" as="geometry" />
        </mxCell>
        <mxCell id="78961159f06e98e8-61" value="- maxThreshold: &lt;span class=&quot;hljs-keyword&quot;&gt;int&lt;/span&gt;" style="text;html=1;strokeColor=none;fillColor=none;align=left;verticalAlign=top;spacingLeft=4;spacingRight=4;whiteSpace=wrap;overflow=hidden;rotatable=0;points=[[0,0.5],[1,0.5]];portConstraint=eastwest;" parent="78961159f06e98e8-56" vertex="1">
          <mxGeometry y="130" width="410" height="26" as="geometry" />
        </mxCell>
        <mxCell id="78961159f06e98e8-64" value="" style="line;html=1;strokeWidth=1;fillColor=none;align=left;verticalAlign=middle;spacingTop=-1;spacingLeft=3;spacingRight=3;rotatable=0;labelPosition=right;points=[];portConstraint=eastwest;" parent="78961159f06e98e8-56" vertex="1">
          <mxGeometry y="156" width="410" height="8" as="geometry" />
        </mxCell>
        <mxCell id="78961159f06e98e8-65" value="+ &lt;span class=&quot;hljs-title function_ invoke__&quot;&gt;Detection&lt;/span&gt;(&lt;span class=&quot;hljs-attr&quot;&gt;filePath&lt;/span&gt;: &lt;span class=&quot;hljs-keyword&quot;&gt;string&lt;/span&gt;, &lt;span class=&quot;hljs-attr&quot;&gt;fileName&lt;/span&gt;: &lt;span class=&quot;hljs-keyword&quot;&gt;string&lt;/span&gt;, &lt;span class=&quot;hljs-attr&quot;&gt;scale&lt;/span&gt;: &lt;span class=&quot;hljs-keyword&quot;&gt;double&lt;/span&gt;&amp;amp;)" style="text;html=1;strokeColor=none;fillColor=none;align=left;verticalAlign=top;spacingLeft=4;spacingRight=4;whiteSpace=wrap;overflow=hidden;rotatable=0;points=[[0,0.5],[1,0.5]];portConstraint=eastwest;" parent="78961159f06e98e8-56" vertex="1">
          <mxGeometry y="164" width="410" height="26" as="geometry" />
        </mxCell>
        <mxCell id="78961159f06e98e8-66" value="+ ~&lt;span class=&quot;hljs-title function_ invoke__&quot;&gt;Detection&lt;/span&gt;()" style="text;html=1;strokeColor=none;fillColor=none;align=left;verticalAlign=top;spacingLeft=4;spacingRight=4;whiteSpace=wrap;overflow=hidden;rotatable=0;points=[[0,0.5],[1,0.5]];portConstraint=eastwest;" parent="78961159f06e98e8-56" vertex="1">
          <mxGeometry y="190" width="410" height="26" as="geometry" />
        </mxCell>
        <mxCell id="78961159f06e98e8-68" value="+ &lt;span class=&quot;hljs-title function_ invoke__&quot;&gt;detectFeatures&lt;/span&gt;(): &lt;span class=&quot;hljs-keyword&quot;&gt;void&lt;/span&gt; (pure virtual)" style="text;html=1;strokeColor=none;fillColor=none;align=left;verticalAlign=top;spacingLeft=4;spacingRight=4;whiteSpace=wrap;overflow=hidden;rotatable=0;points=[[0,0.5],[1,0.5]];portConstraint=eastwest;" parent="78961159f06e98e8-56" vertex="1">
          <mxGeometry y="216" width="410" height="26" as="geometry" />
        </mxCell>
        <mxCell id="Kzs0DwmEe2T-_LOK4Gmm-19" value="+ &lt;span class=&quot;hljs-title function_ invoke__&quot;&gt;displayFeatures&lt;/span&gt;(&lt;span class=&quot;hljs-attr&quot;&gt;windowName&lt;/span&gt;: &lt;span class=&quot;hljs-keyword&quot;&gt;string&lt;/span&gt;, &lt;span class=&quot;hljs-attr&quot;&gt;type&lt;/span&gt;: FeatureType): &lt;span class=&quot;hljs-keyword&quot;&gt;void&lt;/span&gt;" style="text;html=1;strokeColor=none;fillColor=none;align=left;verticalAlign=top;spacingLeft=4;spacingRight=4;whiteSpace=wrap;overflow=hidden;rotatable=0;points=[[0,0.5],[1,0.5]];portConstraint=eastwest;" parent="78961159f06e98e8-56" vertex="1">
          <mxGeometry y="242" width="410" height="26" as="geometry" />
        </mxCell>
        <mxCell id="Kzs0DwmEe2T-_LOK4Gmm-18" value="+ &lt;span class=&quot;hljs-title function_ invoke__&quot;&gt;saveFeatures&lt;/span&gt;(&lt;span class=&quot;hljs-attr&quot;&gt;fileName&lt;/span&gt;: &lt;span class=&quot;hljs-keyword&quot;&gt;string&lt;/span&gt;): &lt;span class=&quot;hljs-keyword&quot;&gt;void&lt;/span&gt;" style="text;html=1;strokeColor=none;fillColor=none;align=left;verticalAlign=top;spacingLeft=4;spacingRight=4;whiteSpace=wrap;overflow=hidden;rotatable=0;points=[[0,0.5],[1,0.5]];portConstraint=eastwest;" parent="78961159f06e98e8-56" vertex="1">
          <mxGeometry y="268" width="410" height="26" as="geometry" />
        </mxCell>
        <mxCell id="Kzs0DwmEe2T-_LOK4Gmm-20" value="+ &lt;span class=&quot;hljs-title function_ invoke__&quot;&gt;logMessage&lt;/span&gt;(&lt;span class=&quot;hljs-attr&quot;&gt;message&lt;/span&gt;: &lt;span class=&quot;hljs-keyword&quot;&gt;string&lt;/span&gt;): &lt;span class=&quot;hljs-keyword&quot;&gt;void&lt;/span&gt;" style="text;html=1;strokeColor=none;fillColor=none;align=left;verticalAlign=top;spacingLeft=4;spacingRight=4;whiteSpace=wrap;overflow=hidden;rotatable=0;points=[[0,0.5],[1,0.5]];portConstraint=eastwest;" parent="78961159f06e98e8-56" vertex="1">
          <mxGeometry y="294" width="410" height="26" as="geometry" />
        </mxCell>
        <mxCell id="Kzs0DwmEe2T-_LOK4Gmm-21" value="+ &lt;span class=&quot;hljs-title function_ invoke__&quot;&gt;createAdjustableEdgeMap&lt;/span&gt;(): &lt;span class=&quot;hljs-keyword&quot;&gt;void&lt;/span&gt;" style="text;html=1;strokeColor=none;fillColor=none;align=left;verticalAlign=top;spacingLeft=4;spacingRight=4;whiteSpace=wrap;overflow=hidden;rotatable=0;points=[[0,0.5],[1,0.5]];portConstraint=eastwest;" parent="78961159f06e98e8-56" vertex="1">
          <mxGeometry y="320" width="410" height="26" as="geometry" />
        </mxCell>
        <mxCell id="Kzs0DwmEe2T-_LOK4Gmm-22" value="+ &lt;span class=&quot;hljs-title function_ invoke__&quot;&gt;createAdjustableEdgeMap&lt;/span&gt;(&lt;span class=&quot;hljs-attr&quot;&gt;initialThreshold&lt;/span&gt;: &lt;span class=&quot;hljs-keyword&quot;&gt;int&lt;/span&gt;, &lt;span class=&quot;hljs-attr&quot;&gt;maxThreshold&lt;/span&gt;: &lt;span class=&quot;hljs-keyword&quot;&gt;int&lt;/span&gt;): &lt;span class=&quot;hljs-keyword&quot;&gt;void&lt;/span&gt;" style="text;html=1;strokeColor=none;fillColor=none;align=left;verticalAlign=top;spacingLeft=4;spacingRight=4;whiteSpace=wrap;overflow=hidden;rotatable=0;points=[[0,0.5],[1,0.5]];portConstraint=eastwest;" parent="78961159f06e98e8-56" vertex="1">
          <mxGeometry y="346" width="410" height="26" as="geometry" />
        </mxCell>
        <mxCell id="Kzs0DwmEe2T-_LOK4Gmm-23" value="+ &lt;span class=&quot;hljs-title function_ invoke__&quot;&gt;updateEdgeMap&lt;/span&gt;(): &lt;span class=&quot;hljs-keyword&quot;&gt;void&lt;/span&gt;" style="text;html=1;strokeColor=none;fillColor=none;align=left;verticalAlign=top;spacingLeft=4;spacingRight=4;whiteSpace=wrap;overflow=hidden;rotatable=0;points=[[0,0.5],[1,0.5]];portConstraint=eastwest;" parent="78961159f06e98e8-56" vertex="1">
          <mxGeometry y="372" width="410" height="26" as="geometry" />
        </mxCell>
        <mxCell id="Kzs0DwmEe2T-_LOK4Gmm-24" value="+ &lt;span class=&quot;hljs-title function_ invoke__&quot;&gt;setCornerFeatures&lt;/span&gt;(&lt;span class=&quot;hljs-attr&quot;&gt;local&lt;/span&gt;: vector&amp;lt;Point&amp;gt;): &lt;span class=&quot;hljs-keyword&quot;&gt;void&lt;/span&gt;" style="text;html=1;strokeColor=none;fillColor=none;align=left;verticalAlign=top;spacingLeft=4;spacingRight=4;whiteSpace=wrap;overflow=hidden;rotatable=0;points=[[0,0.5],[1,0.5]];portConstraint=eastwest;" parent="78961159f06e98e8-56" vertex="1">
          <mxGeometry y="398" width="410" height="26" as="geometry" />
        </mxCell>
        <mxCell id="Kzs0DwmEe2T-_LOK4Gmm-25" value="+ &lt;span class=&quot;hljs-title function_ invoke__&quot;&gt;setLineFeatures&lt;/span&gt;(&lt;span class=&quot;hljs-attr&quot;&gt;local&lt;/span&gt;: vector&amp;lt;Vec4i&amp;gt;): &lt;span class=&quot;hljs-keyword&quot;&gt;void&lt;/span&gt;" style="text;html=1;strokeColor=none;fillColor=none;align=left;verticalAlign=top;spacingLeft=4;spacingRight=4;whiteSpace=wrap;overflow=hidden;rotatable=0;points=[[0,0.5],[1,0.5]];portConstraint=eastwest;" parent="78961159f06e98e8-56" vertex="1">
          <mxGeometry y="424" width="410" height="26" as="geometry" />
        </mxCell>
        <mxCell id="Kzs0DwmEe2T-_LOK4Gmm-26" value="+ &lt;span class=&quot;hljs-title function_ invoke__&quot;&gt;getCornerFeatures&lt;/span&gt;(): vector&amp;lt;Point&amp;gt; &lt;span class=&quot;hljs-keyword&quot;&gt;const&lt;/span&gt;" style="text;html=1;strokeColor=none;fillColor=none;align=left;verticalAlign=top;spacingLeft=4;spacingRight=4;whiteSpace=wrap;overflow=hidden;rotatable=0;points=[[0,0.5],[1,0.5]];portConstraint=eastwest;" parent="78961159f06e98e8-56" vertex="1">
          <mxGeometry y="450" width="410" height="26" as="geometry" />
        </mxCell>
        <mxCell id="Kzs0DwmEe2T-_LOK4Gmm-27" value="+ &lt;span class=&quot;hljs-title function_ invoke__&quot;&gt;getCornerCount&lt;/span&gt;(): &lt;span class=&quot;hljs-keyword&quot;&gt;int&lt;/span&gt; &lt;span class=&quot;hljs-keyword&quot;&gt;const&lt;/span&gt;" style="text;html=1;strokeColor=none;fillColor=none;align=left;verticalAlign=top;spacingLeft=4;spacingRight=4;whiteSpace=wrap;overflow=hidden;rotatable=0;points=[[0,0.5],[1,0.5]];portConstraint=eastwest;" parent="78961159f06e98e8-56" vertex="1">
          <mxGeometry y="476" width="410" height="26" as="geometry" />
        </mxCell>
        <mxCell id="Kzs0DwmEe2T-_LOK4Gmm-28" value="+ &lt;span class=&quot;hljs-title function_ invoke__&quot;&gt;getLineCount&lt;/span&gt;(): &lt;span class=&quot;hljs-keyword&quot;&gt;int&lt;/span&gt; &lt;span class=&quot;hljs-keyword&quot;&gt;const&lt;/span&gt;" style="text;html=1;strokeColor=none;fillColor=none;align=left;verticalAlign=top;spacingLeft=4;spacingRight=4;whiteSpace=wrap;overflow=hidden;rotatable=0;points=[[0,0.5],[1,0.5]];portConstraint=eastwest;" parent="78961159f06e98e8-56" vertex="1">
          <mxGeometry y="502" width="410" height="26" as="geometry" />
        </mxCell>
        <mxCell id="Kzs0DwmEe2T-_LOK4Gmm-29" value="+ operator+=(corner: Point): Detection&amp;amp;" style="text;html=1;strokeColor=none;fillColor=none;align=left;verticalAlign=top;spacingLeft=4;spacingRight=4;whiteSpace=wrap;overflow=hidden;rotatable=0;points=[[0,0.5],[1,0.5]];portConstraint=eastwest;" parent="78961159f06e98e8-56" vertex="1">
          <mxGeometry y="528" width="410" height="26" as="geometry" />
        </mxCell>
        <mxCell id="78961159f06e98e8-69" value="LineDetection" style="swimlane;html=1;fontStyle=1;align=center;verticalAlign=top;childLayout=stackLayout;horizontal=1;startSize=26;horizontalStack=0;resizeParent=1;resizeLast=0;collapsible=1;marginBottom=0;swimlaneFillColor=#ffffff;rounded=0;shadow=0;comic=0;labelBackgroundColor=none;strokeWidth=1;fillColor=none;fontFamily=Verdana;fontSize=12" parent="1" vertex="1">
          <mxGeometry x="140" y="1453" width="360" height="247" as="geometry" />
        </mxCell>
        <mxCell id="78961159f06e98e8-70" value="- lowThresHold: &lt;span class=&quot;hljs-keyword&quot;&gt;int&lt;/span&gt;" style="text;html=1;strokeColor=none;fillColor=none;align=left;verticalAlign=top;spacingLeft=4;spacingRight=4;whiteSpace=wrap;overflow=hidden;rotatable=0;points=[[0,0.5],[1,0.5]];portConstraint=eastwest;" parent="78961159f06e98e8-69" vertex="1">
          <mxGeometry y="26" width="360" height="26" as="geometry" />
        </mxCell>
        <mxCell id="78961159f06e98e8-71" value="- maxThresHold: &lt;span class=&quot;hljs-keyword&quot;&gt;int&lt;/span&gt; &lt;span class=&quot;hljs-keyword&quot;&gt;const&lt;/span&gt; = &lt;span class=&quot;hljs-number&quot;&gt;255&lt;/span&gt;" style="text;html=1;strokeColor=none;fillColor=none;align=left;verticalAlign=top;spacingLeft=4;spacingRight=4;whiteSpace=wrap;overflow=hidden;rotatable=0;points=[[0,0.5],[1,0.5]];portConstraint=eastwest;" parent="78961159f06e98e8-69" vertex="1">
          <mxGeometry y="52" width="360" height="26" as="geometry" />
        </mxCell>
        <mxCell id="78961159f06e98e8-72" value="- detectedEdges: Mat&lt;div&gt;&lt;br/&gt;&lt;/div&gt;" style="text;html=1;strokeColor=none;fillColor=none;align=left;verticalAlign=top;spacingLeft=4;spacingRight=4;whiteSpace=wrap;overflow=hidden;rotatable=0;points=[[0,0.5],[1,0.5]];portConstraint=eastwest;" parent="78961159f06e98e8-69" vertex="1">
          <mxGeometry y="78" width="360" height="26" as="geometry" />
        </mxCell>
        <mxCell id="78961159f06e98e8-77" value="" style="line;html=1;strokeWidth=1;fillColor=none;align=left;verticalAlign=middle;spacingTop=-1;spacingLeft=3;spacingRight=3;rotatable=0;labelPosition=right;points=[];portConstraint=eastwest;" parent="78961159f06e98e8-69" vertex="1">
          <mxGeometry y="104" width="360" height="8" as="geometry" />
        </mxCell>
        <mxCell id="78961159f06e98e8-78" value="+ &lt;span class=&quot;hljs-title function_ invoke__&quot;&gt;LineDetection&lt;/span&gt;(&lt;span class=&quot;hljs-attr&quot;&gt;filePath&lt;/span&gt;: &lt;span class=&quot;hljs-keyword&quot;&gt;string&lt;/span&gt;, &lt;span class=&quot;hljs-attr&quot;&gt;fileName&lt;/span&gt;: &lt;span class=&quot;hljs-keyword&quot;&gt;string&lt;/span&gt;, &lt;span class=&quot;hljs-attr&quot;&gt;scale&lt;/span&gt;: &lt;span class=&quot;hljs-keyword&quot;&gt;double&lt;/span&gt;&amp;amp;)" style="text;html=1;strokeColor=none;fillColor=none;align=left;verticalAlign=top;spacingLeft=4;spacingRight=4;whiteSpace=wrap;overflow=hidden;rotatable=0;points=[[0,0.5],[1,0.5]];portConstraint=eastwest;" parent="78961159f06e98e8-69" vertex="1">
          <mxGeometry y="112" width="360" height="26" as="geometry" />
        </mxCell>
        <mxCell id="78961159f06e98e8-79" value="+ ~&lt;span class=&quot;hljs-title function_ invoke__&quot;&gt;LineDetection&lt;/span&gt;()" style="text;html=1;strokeColor=none;fillColor=none;align=left;verticalAlign=top;spacingLeft=4;spacingRight=4;whiteSpace=wrap;overflow=hidden;rotatable=0;points=[[0,0.5],[1,0.5]];portConstraint=eastwest;" parent="78961159f06e98e8-69" vertex="1">
          <mxGeometry y="138" width="360" height="26" as="geometry" />
        </mxCell>
        <mxCell id="78961159f06e98e8-80" value="+ &lt;span class=&quot;hljs-title function_ invoke__&quot;&gt;detectFeatures&lt;/span&gt;(): &lt;span class=&quot;hljs-keyword&quot;&gt;void&lt;/span&gt; override" style="text;html=1;strokeColor=none;fillColor=none;align=left;verticalAlign=top;spacingLeft=4;spacingRight=4;whiteSpace=wrap;overflow=hidden;rotatable=0;points=[[0,0.5],[1,0.5]];portConstraint=eastwest;" parent="78961159f06e98e8-69" vertex="1">
          <mxGeometry y="164" width="360" height="26" as="geometry" />
        </mxCell>
        <mxCell id="78961159f06e98e8-81" value="+ &lt;span class=&quot;hljs-title function_ invoke__&quot;&gt;processLineDetection&lt;/span&gt;(): &lt;span class=&quot;hljs-keyword&quot;&gt;void&lt;/span&gt;" style="text;html=1;strokeColor=none;fillColor=none;align=left;verticalAlign=top;spacingLeft=4;spacingRight=4;whiteSpace=wrap;overflow=hidden;rotatable=0;points=[[0,0.5],[1,0.5]];portConstraint=eastwest;" parent="78961159f06e98e8-69" vertex="1">
          <mxGeometry y="190" width="360" height="26" as="geometry" />
        </mxCell>
        <mxCell id="Kzs0DwmEe2T-_LOK4Gmm-31" value="+ &lt;span class=&quot;hljs-title function_ invoke__&quot;&gt;processLineDetection&lt;/span&gt;(&lt;span class=&quot;hljs-attr&quot;&gt;filter&lt;/span&gt;: &lt;span class=&quot;hljs-keyword&quot;&gt;bool&lt;/span&gt;): &lt;span class=&quot;hljs-keyword&quot;&gt;void&lt;/span&gt;" style="text;html=1;strokeColor=none;fillColor=none;align=left;verticalAlign=top;spacingLeft=4;spacingRight=4;whiteSpace=wrap;overflow=hidden;rotatable=0;points=[[0,0.5],[1,0.5]];portConstraint=eastwest;" parent="78961159f06e98e8-69" vertex="1">
          <mxGeometry y="216" width="360" height="26" as="geometry" />
        </mxCell>
        <mxCell id="78961159f06e98e8-126" style="edgeStyle=orthogonalEdgeStyle;html=1;labelBackgroundColor=none;startFill=0;startSize=8;endArrow=block;endFill=0;endSize=16;fontFamily=Verdana;fontSize=12;exitX=0.539;exitY=0.008;exitDx=0;exitDy=0;exitPerimeter=0;" parent="1" source="78961159f06e98e8-30" edge="1">
          <mxGeometry relative="1" as="geometry">
            <Array as="points">
              <mxPoint x="919" y="1350" />
              <mxPoint x="650" y="1350" />
            </Array>
            <mxPoint x="909.9199999999998" y="1629.723" as="sourcePoint" />
            <mxPoint x="650" y="1310" as="targetPoint" />
          </mxGeometry>
        </mxCell>
        <mxCell id="Kzs0DwmEe2T-_LOK4Gmm-1" style="edgeStyle=orthogonalEdgeStyle;html=1;labelBackgroundColor=none;startFill=0;startSize=8;endArrow=block;endFill=0;endSize=16;fontFamily=Verdana;fontSize=12;" parent="1" edge="1">
          <mxGeometry relative="1" as="geometry">
            <Array as="points">
              <mxPoint x="280" y="1350" />
              <mxPoint x="610" y="1350" />
            </Array>
            <mxPoint x="280" y="1453" as="sourcePoint" />
            <mxPoint x="610" y="1310" as="targetPoint" />
          </mxGeometry>
        </mxCell>
        <mxCell id="Kzs0DwmEe2T-_LOK4Gmm-2" style="edgeStyle=orthogonalEdgeStyle;html=1;labelBackgroundColor=none;startFill=0;startSize=8;endArrow=block;endFill=0;endSize=16;fontFamily=Verdana;fontSize=12;exitX=0.5;exitY=0;exitDx=0;exitDy=0;" parent="1" source="78961159f06e98e8-56" edge="1">
          <mxGeometry relative="1" as="geometry">
            <Array as="points">
              <mxPoint x="635" y="560" />
            </Array>
            <mxPoint x="620.0799999999999" y="997.31" as="sourcePoint" />
            <mxPoint x="635" y="560" as="targetPoint" />
          </mxGeometry>
        </mxCell>
        <mxCell id="Kzs0DwmEe2T-_LOK4Gmm-37" value="OpenCV Functions" style="swimlane;html=1;fontStyle=1;align=center;verticalAlign=top;childLayout=stackLayout;horizontal=1;startSize=26;horizontalStack=0;resizeParent=1;resizeLast=0;collapsible=1;marginBottom=0;swimlaneFillColor=#ffffff;rounded=0;shadow=0;comic=0;labelBackgroundColor=none;strokeWidth=1;fillColor=none;fontFamily=Verdana;fontSize=12" parent="1" vertex="1">
          <mxGeometry x="-400" y="1528" width="350" height="97" as="geometry" />
        </mxCell>
        <mxCell id="Kzs0DwmEe2T-_LOK4Gmm-41" value="" style="line;html=1;strokeWidth=1;fillColor=none;align=left;verticalAlign=middle;spacingTop=-1;spacingLeft=3;spacingRight=3;rotatable=0;labelPosition=right;points=[];portConstraint=eastwest;" parent="Kzs0DwmEe2T-_LOK4Gmm-37" vertex="1">
          <mxGeometry y="26" width="350" height="8" as="geometry" />
        </mxCell>
        <mxCell id="Kzs0DwmEe2T-_LOK4Gmm-42" value="+ &lt;span class=&quot;hljs-built_in&quot;&gt;Canny&lt;/span&gt;():&amp;nbsp;Applies Canny edge detection" style="text;html=1;strokeColor=none;fillColor=none;align=left;verticalAlign=top;spacingLeft=4;spacingRight=4;whiteSpace=wrap;overflow=hidden;rotatable=0;points=[[0,0.5],[1,0.5]];portConstraint=eastwest;" parent="Kzs0DwmEe2T-_LOK4Gmm-37" vertex="1">
          <mxGeometry y="34" width="350" height="26" as="geometry" />
        </mxCell>
        <mxCell id="Kzs0DwmEe2T-_LOK4Gmm-43" value="+ &lt;span class=&quot;hljs-built_in&quot;&gt;HoughLinesP&lt;/span&gt;():&amp;nbsp;Detects lines using Hough Transform&amp;nbsp;" style="text;html=1;strokeColor=none;fillColor=none;align=left;verticalAlign=top;spacingLeft=4;spacingRight=4;whiteSpace=wrap;overflow=hidden;rotatable=0;points=[[0,0.5],[1,0.5]];portConstraint=eastwest;" parent="Kzs0DwmEe2T-_LOK4Gmm-37" vertex="1">
          <mxGeometry y="60" width="350" height="26" as="geometry" />
        </mxCell>
        <mxCell id="Kzs0DwmEe2T-_LOK4Gmm-48" style="edgeStyle=orthogonalEdgeStyle;rounded=0;orthogonalLoop=1;jettySize=auto;html=1;entryX=0.996;entryY=0.726;entryDx=0;entryDy=0;entryPerimeter=0;dashed=1;" parent="1" source="78961159f06e98e8-78" target="Kzs0DwmEe2T-_LOK4Gmm-42" edge="1">
          <mxGeometry relative="1" as="geometry">
            <Array as="points">
              <mxPoint x="120" y="1581" />
              <mxPoint x="120" y="1581" />
            </Array>
          </mxGeometry>
        </mxCell>
        <mxCell id="Kzs0DwmEe2T-_LOK4Gmm-49" value="OpenCV Functions" style="swimlane;html=1;fontStyle=1;align=center;verticalAlign=top;childLayout=stackLayout;horizontal=1;startSize=26;horizontalStack=0;resizeParent=1;resizeLast=0;collapsible=1;marginBottom=0;swimlaneFillColor=#ffffff;rounded=0;shadow=0;comic=0;labelBackgroundColor=none;strokeWidth=1;fillColor=none;fontFamily=Verdana;fontSize=12" parent="1" vertex="1">
          <mxGeometry x="1320" y="1520" width="480" height="97" as="geometry" />
        </mxCell>
        <mxCell id="Kzs0DwmEe2T-_LOK4Gmm-50" value="" style="line;html=1;strokeWidth=1;fillColor=none;align=left;verticalAlign=middle;spacingTop=-1;spacingLeft=3;spacingRight=3;rotatable=0;labelPosition=right;points=[];portConstraint=eastwest;" parent="Kzs0DwmEe2T-_LOK4Gmm-49" vertex="1">
          <mxGeometry y="26" width="480" height="8" as="geometry" />
        </mxCell>
        <mxCell id="Kzs0DwmEe2T-_LOK4Gmm-51" value="+ cornerHarris():&amp;nbsp;Applies Harris corner detection to detect corners in the image." style="text;html=1;strokeColor=none;fillColor=none;align=left;verticalAlign=top;spacingLeft=4;spacingRight=4;whiteSpace=wrap;overflow=hidden;rotatable=0;points=[[0,0.5],[1,0.5]];portConstraint=eastwest;" parent="Kzs0DwmEe2T-_LOK4Gmm-49" vertex="1">
          <mxGeometry y="34" width="480" height="26" as="geometry" />
        </mxCell>
        <mxCell id="Kzs0DwmEe2T-_LOK4Gmm-52" value="+normalize():&amp;nbsp;Normalizes the input image values to a specified range.&amp;nbsp;" style="text;html=1;strokeColor=none;fillColor=none;align=left;verticalAlign=top;spacingLeft=4;spacingRight=4;whiteSpace=wrap;overflow=hidden;rotatable=0;points=[[0,0.5],[1,0.5]];portConstraint=eastwest;" parent="Kzs0DwmEe2T-_LOK4Gmm-49" vertex="1">
          <mxGeometry y="60" width="480" height="26" as="geometry" />
        </mxCell>
        <mxCell id="Kzs0DwmEe2T-_LOK4Gmm-53" style="edgeStyle=orthogonalEdgeStyle;rounded=0;orthogonalLoop=1;jettySize=auto;html=1;entryX=0.006;entryY=0.824;entryDx=0;entryDy=0;entryPerimeter=0;dashed=1;exitX=1.002;exitY=0.354;exitDx=0;exitDy=0;exitPerimeter=0;" parent="1" edge="1">
          <mxGeometry relative="1" as="geometry">
            <mxPoint x="1090.0000000000002" y="1567.894" as="sourcePoint" />
            <mxPoint x="1321.3600000000004" y="1569.114" as="targetPoint" />
            <Array as="points">
              <mxPoint x="1204.26" y="1567.69" />
              <mxPoint x="1204.26" y="1568.69" />
            </Array>
          </mxGeometry>
        </mxCell>
      </root>
    </mxGraphModel>
  </diagram>
</mxfile>
